<?xml version="1.0" standalone="no"?><!DOCTYPE svg PUBLIC "-//W3C//DTD SVG 1.1//EN" "http://www.w3.org/Graphics/SVG/1.1/DTD/svg11.dtd"><svg t="1578706891879" class="icon" viewBox="0 0 1024 1024" version="1.1" xmlns="http://www.w3.org/2000/svg" p-id="2163" xmlns:xlink="http://www.w3.org/1999/xlink" width="40" height="40"><defs><style type="text/css"></style></defs><path d="M504.2086953 527.80521774m-381.99652173 0a381.99652174 381.99652174 0 1 0 763.99304347 0 381.99652174 381.99652174 0 1 0-763.99304347 0Z" fill="#13227a" p-id="2164"></path><path d="M504.2086953 527.80521774m-361.29391304 0a361.29391304 361.29391304 0 1 0 722.58782609 0 361.29391304 361.29391304 0 1 0-722.58782609 0Z" fill="#b0dff8" p-id="2165"></path><path d="M694.4 351.36L523.093333 198.4h-18.56l-171.306666 152.96v5.333333h361.173333v-5.333333z" fill="#1E59E4" p-id="2166"></path><path d="M513.92 324.693333a29.866667 29.866667 0 1 1 0-59.946666 29.866667 29.866667 0 0 1 0 59.946666z" fill="#FFC44F" p-id="2167"></path><path d="M308.906667 723.84a119.68 119.68 0 0 0 71.466666-29.866667 135.893333 135.893333 0 0 0 70.4 29.866667 103.04 103.04 0 0 0 62.506667-30.506667 76.586667 76.586667 0 0 0 56.32 30.506667 81.92 81.92 0 0 0 62.506667-27.52 90.666667 90.666667 0 0 0 60.586666 27.52h1.706667a99.626667 99.626667 0 0 0 68.053333-35.626667 8.32 8.32 0 0 0-13.226666-10.453333 82.986667 82.986667 0 0 1-55.253334 29.226667h-1.28a80 80 0 0 1-54.4-28.586667 8.106667 8.106667 0 0 0-6.826666-3.2 8.533333 8.533333 0 0 0-6.613334 3.626667 69.973333 69.973333 0 0 1-54.4 28.16 61.866667 61.866667 0 0 1-48.426666-30.72 8.533333 8.533333 0 0 0-11.52-3.413334l-2.346667 1.706667s-29.44 32.213333-57.6 32.426667a133.546667 133.546667 0 0 1-65.28-30.293334 8.533333 8.533333 0 0 0-11.093333 0s-35.626667 31.786667-64 30.08a82.133333 82.133333 0 0 1-50.773334-29.013333 8.32 8.32 0 0 0-13.226666 10.453333 98.346667 98.346667 0 0 0 62.933333 35.413334z" fill="#1E59E4" p-id="2168"></path><path d="M749.653333 730.026667a83.2 83.2 0 0 1-55.253333 29.226666h-1.28a80 80 0 0 1-54.4-28.586666 8.32 8.32 0 0 0-11.946667-1.28l-1.493333 1.706666a69.973333 69.973333 0 0 1-54.4 28.16 61.866667 61.866667 0 0 1-48.426667-30.72 8.32 8.32 0 0 0-6.4-4.48 8.533333 8.533333 0 0 0-7.253333 2.773334s-29.44 32.213333-57.6 32.426666a133.546667 133.546667 0 0 1-65.28-30.293333 8.533333 8.533333 0 0 0-11.093333 0s-35.626667 31.786667-64 30.08a82.346667 82.346667 0 0 1-50.773334-29.013333 8.32 8.32 0 0 0-13.226666 10.453333 98.133333 98.133333 0 0 0 62.933333 35.413333A119.68 119.68 0 0 0 380.373333 746.666667a136.106667 136.106667 0 0 0 70.4 29.866666 103.04 103.04 0 0 0 62.506667-30.506666 76.586667 76.586667 0 0 0 56.32 30.506666 81.92 81.92 0 0 0 62.506667-27.52 90.453333 90.453333 0 0 0 60.586666 27.52h1.706667a99.413333 99.413333 0 0 0 68.053333-35.626666 8.32 8.32 0 1 0-13.013333-10.453334zM508.586667 666.453333a8.32 8.32 0 0 1 13.653333 1.706667 65.066667 65.066667 0 0 0 28.16 25.813333v-94.933333h113.28V384H361.6v215.253333h113.28v93.013334a134.4 134.4 0 0 0 33.92-25.813334z" fill="#1E59E4" p-id="2169"></path><path d="M396.16 442.026667h232.96v81.28H396.16v-81.28z" fill="#FFC44F" p-id="2170"></path><path d="M513.92 693.76l-0.213333-0.213333-0.426667 0.213333h0.64z" fill="#4991F2" p-id="2171"></path></svg>