<?xml version="1.0" standalone="no"?><!DOCTYPE svg PUBLIC "-//W3C//DTD SVG 1.1//EN" "http://www.w3.org/Graphics/SVG/1.1/DTD/svg11.dtd"><svg t="1578644319159" class="icon" viewBox="0 0 1024 1024" version="1.1" xmlns="http://www.w3.org/2000/svg" p-id="2133" xmlns:xlink="http://www.w3.org/1999/xlink" width="40" height="40"><defs><style type="text/css"></style></defs><path d="M512 64c-192 0-339.2 153.6-345.6 345.6 0 140.8 192 403.2 288 524.8 25.6 32 76.8 32 102.4 6.4l6.4-6.4c96-128 288-384 288-524.8C851.2 217.6 704 64 512 64z m0 569.6c-121.6 0-224-102.4-224-224s102.4-224 224-224 224 102.4 224 224-102.4 224-224 224zM544 288h-64v192h192v-64H544V288z" fill="#1296db" p-id="2134"></path></svg>