<?xml version="1.0" encoding="UTF-8"?>
<svg width="28px" height="28px" viewBox="0 0 28 28" version="1.1" xmlns="http://www.w3.org/2000/svg" xmlns:xlink="http://www.w3.org/1999/xlink">
    <!-- Generator: Sketch 48.2 (47327) - http://www.bohemiancoding.com/sketch -->
    <title>Group 4</title>
    <desc>Created with Sketch.</desc>
    <defs></defs>
    <g id="index２" stroke="none" stroke-width="1" fill="none" fill-rule="evenodd" transform="translate(-169.000000, -37.000000)">
        <g id="Group-7-Copy" transform="translate(61.000000, 37.000000)">
            <g id="Group-4" transform="translate(108.000000, 0.000000)">
                <circle id="Oval-3-Copy-2" fill="#15D26A" opacity="0.75" cx="14" cy="14" r="14"></circle>
                <g id="Group-8" opacity="0.5" transform="translate(14.500000, 14.500000) rotate(35.000000) translate(-14.500000, -14.500000) translate(8.000000, 6.000000)" fill="#FFFFFF">
                    <path d="M6.19514462,0.234504139 L1.16520559,4.10368801 C0.946328522,4.27205498 0.905382001,4.58597831 1.07374898,4.80485538 C1.16839713,4.92789797 1.31482647,5 1.47006097,5 L11.529939,5 C11.8060814,5 12.029939,4.77614237 12.029939,4.5 C12.029939,4.34476549 11.957837,4.19833615 11.8347944,4.10368801 L6.80485538,0.234504139 C6.6251295,0.0962534649 6.3748705,0.0962534649 6.19514462,0.234504139 Z" id="Path-12"></path>
                    <path d="M6.19514462,12.103688 L1.16520559,15.9728719 C0.946328522,16.1412388 0.905382001,16.4551622 1.07374898,16.6740392 C1.16839713,16.7970818 1.31482647,16.8691839 1.47006097,16.8691839 L11.529939,16.8691839 C11.8060814,16.8691839 12.029939,16.6453262 12.029939,16.3691839 C12.029939,16.2139494 11.957837,16.06752 11.8347944,15.9728719 L6.80485538,12.103688 C6.6251295,11.9654373 6.3748705,11.9654373 6.19514462,12.103688 Z" id="Path-12-Copy" transform="translate(6.499988, 14.434592) scale(1, -1) translate(-6.499988, -14.434592) "></path>
                </g>
            </g>
        </g>
    </g>
</svg>