<?xml version="1.0" encoding="UTF-8"?>
<svg width="29px" height="33px" viewBox="0 0 29 33" version="1.1" xmlns="http://www.w3.org/2000/svg" xmlns:xlink="http://www.w3.org/1999/xlink">
    <!-- Generator: Sketch 48.2 (47327) - http://www.bohemiancoding.com/sketch -->
    <title>Group 37</title>
    <desc>Created with Sketch.</desc>
    <defs></defs>
    <g id="index４" stroke="none" stroke-width="1" fill="none" fill-rule="evenodd" transform="translate(-1379.000000, -440.000000)">
        <g id="Group-37" transform="translate(1380.000000, 441.000000)">
            <polygon id="Polygon-Copy-3" stroke="#BFB142" points="13.5 0 27 7.79422863 27 23.3826859 13.5 31.1769145 7.99360578e-15 23.3826859 -8.8817842e-16 7.79422863"></polygon>
            <g id="Group-14-Copy-4" transform="translate(5.000000, 4.000000)">
                <path d="M16,11.9397746 C16,9.7469056 15.119367,7.74801404 13.6956771,6.29225938 L13.6571494,6.24792167 C12.7141383,5.29835581 11.5381264,4.58710512 10.2245155,4.20469241 L10.2245155,2.67504157 C10.2245155,2.42564197 10.0227038,2.21873268 9.7713565,2.21873268 L9.41726866,2.21873268 C9.50716661,2.01921301 9.55670221,1.79937188 9.55670221,1.56659893 C9.55670221,1.14908553 9.39341819,0.768520229 9.13106295,0.487714761 L9.10170852,0.456308886 C8.81917211,0.173656013 8.43206054,0 8.00275198,0 C7.57160876,0 7.18082789,0.173656013 6.90012613,0.456308886 L6.90012613,0.45815629 C6.61942438,0.744503972 6.44146313,1.1361537 6.44146313,1.56659893 C6.44146313,1.79937188 6.49283339,2.01921301 6.58640064,2.21873268 L6.23231281,2.21873268 C5.98096549,2.21873268 5.78098842,2.42564197 5.78098842,2.67504157 L5.78098842,4.20838722 C4.46554294,4.59079993 3.28953102,5.29835581 2.3501892,6.24607427 L2.34835455,6.24792167 L2.34835455,6.24976907 L2.34468524,6.25161648 C0.898979475,7.71106595 0,9.72288934 0,11.9397746 C0,14.1677443 0.897144823,16.1795677 2.34468524,17.6390172 C3.79222566,19.0984667 5.79016168,20 8.00275198,20 C10.2098383,20 12.209609,19.0984667 13.6571494,17.6390172 L13.6553148,17.6371698 C15.1046898,16.1777203 16,14.1658969 16,11.9397746 Z M7.54041968,1.10290042 L7.54408898,1.10290042 C7.6578374,0.984666544 7.82295608,0.912617772 8.00275198,0.912617772 C8.18071322,0.912617772 8.3421626,0.984666544 8.45958032,1.10474783 L8.47792684,1.12691668 C8.58433666,1.23591354 8.65038413,1.39479032 8.65038413,1.56659893 C8.65038413,1.74579715 8.5751634,1.91206355 8.46141498,2.02845003 L8.46141498,2.03214484 L8.45958032,2.02845003 C8.3458319,2.1411417 8.18805183,2.21503787 8.01559454,2.21873268 L7.98257081,2.21873268 C7.81011352,2.21503787 7.6541681,2.1411417 7.54408898,2.03214484 L7.54041968,2.02845003 C7.4248366,1.91206355 7.35328517,1.74579715 7.35328517,1.56659893 C7.35328517,1.3855533 7.4248366,1.2192869 7.54041968,1.10290042 Z M6.6873065,3.13504526 L9.31452815,3.13504526 L9.31452815,3.82782191 C9.19344112,3.80750046 9.07051944,3.78717901 8.94759775,3.77424718 C8.63570691,3.73545169 8.31831212,3.71328284 8.00275198,3.71328284 C7.68168788,3.71328284 7.36429309,3.73545169 7.05240225,3.77424718 C6.93131522,3.78717901 6.80839353,3.80750046 6.6873065,3.82782191 L6.6873065,3.13504526 Z" id="Fill-3690-Copy" fill="#E5B412"></path>
                <path d="M12.2933181,16.3002461 L12.2916011,16.3002461 C11.1927314,17.3502871 9.67320074,18 8.00085849,18 C6.32336529,18 4.80555158,17.3502871 3.70839891,16.3002461 C2.81900129,15.4520098 2.20603806,14.3396226 2,13.097621 L3.1469452,12 L4.44155101,13.2354389 L4.46558878,13.2600492 C4.63041923,13.4191961 4.90170268,13.4191961 5.06653312,13.2600492 L6.38345972,12 L7.67806553,13.2354389 L7.69866934,13.2600492 C7.8617828,13.4191961 8.13478323,13.4191961 8.29789669,13.2600492 L9.61997425,12 L10.9111461,13.2354389 L10.9351839,13.2600492 C11.0982973,13.4191961 11.3678638,13.4191961 11.5344112,13.2600492 L12.8530548,12 L14,13.097621 C13.7956789,14.3396226 13.1809987,15.4520098 12.2933181,16.3002461 Z" id="Path" fill-opacity="0.5" fill="#FFFFFF"></path>
            </g>
        </g>
    </g>
</svg>