<?xml version="1.0" encoding="UTF-8"?>
<svg width="29px" height="33px" viewBox="0 0 29 33" version="1.1" xmlns="http://www.w3.org/2000/svg" xmlns:xlink="http://www.w3.org/1999/xlink">
    <!-- Generator: Sketch 48.2 (47327) - http://www.bohemiancoding.com/sketch -->
    <title>Group 38</title>
    <desc>Created with Sketch.</desc>
    <defs></defs>
    <g id="index４" stroke="none" stroke-width="1" fill="none" fill-rule="evenodd" transform="translate(-585.000000, -694.000000)">
        <g id="Group-38" transform="translate(586.000000, 695.000000)">
            <polygon id="Polygon-Copy-5" stroke="#AE4543" points="13.5 0 27 7.79422863 27 23.3826859 13.5 31.1769145 7.99360578e-15 23.3826859 -8.8817842e-16 7.79422863"></polygon>
            <g id="Group-14-Copy-6" transform="translate(5.000000, 4.000000)">
                <path d="M15.9317615,11.8067853 C15.9317615,9.63834123 15.0548844,7.66171401 13.6372664,6.22217404 L13.598903,6.17833018 C12.6599137,5.23934091 11.4889174,4.53601237 10.180909,4.15785911 L10.180909,2.64524604 C10.180909,2.39862434 9.97995795,2.19401968 9.7296826,2.19401968 L9.37710492,2.19401968 C9.46661946,1.99672232 9.5159438,1.77932986 9.5159438,1.54914961 C9.5159438,1.13628663 9.35335616,0.759960188 9.09211985,0.482282427 L9.06289061,0.451226362 C8.78155919,0.171721773 8.39609862,0 7.96862101,0 C7.53931658,0 7.15020235,0.171721773 6.87069776,0.451226362 L6.87069776,0.453053189 C6.59119317,0.736211432 6.41399091,1.12349884 6.41399091,1.54914961 C6.41399091,1.77932986 6.46514208,1.99672232 6.55831028,2.19401968 L6.20573259,2.19401968 C5.95545724,2.19401968 5.75633306,2.39862434 5.75633306,2.64524604 L5.75633306,4.16151276 C4.44649783,4.53966603 3.27550148,5.23934091 2.34016587,6.17650336 L2.33833904,6.17833018 L2.33833904,6.18015701 L2.33468539,6.18198384 C0.895145414,7.62517746 0,9.61459248 0,11.8067853 C0,14.0099391 0.893318587,15.9993542 2.33468539,17.4425478 C3.77605218,18.8857414 5.7654672,19.7772332 7.96862101,19.7772332 C10.1662943,19.7772332 12.1575362,18.8857414 13.598903,17.4425478 L13.5970762,17.440721 C15.0402698,15.9975273 15.9317615,14.0081123 15.9317615,11.8067853 Z M7.50826051,1.09061594 L7.51191417,1.09061594 C7.62517746,0.973698991 7.78959193,0.902452723 7.96862101,0.902452723 C8.14582327,0.902452723 8.30658408,0.973698991 8.42350103,1.09244277 L8.4417693,1.1143647 C8.54772529,1.22214751 8.61349107,1.37925467 8.61349107,1.54914961 C8.61349107,1.72635187 8.53859115,1.89076633 8.42532786,2.00585646 L8.42532786,2.00951011 L8.42350103,2.00585646 C8.31023773,2.11729293 8.15313058,2.19036602 7.9814088,2.19401968 L7.94852591,2.19401968 C7.77680414,2.19036602 7.62152381,2.11729293 7.51191417,2.00951011 L7.50826051,2.00585646 C7.39317039,1.89076633 7.32192412,1.72635187 7.32192412,1.54914961 C7.32192412,1.37012053 7.39317039,1.20570607 7.50826051,1.09061594 Z M6.65878578,3.10012606 L9.27480258,3.10012606 L9.27480258,3.78518632 C9.15423198,3.76509122 9.03183454,3.74499612 8.90943711,3.73220833 C8.59887646,3.69384495 8.28283532,3.67192302 7.96862101,3.67192302 C7.64892622,3.67192302 7.33288508,3.69384495 7.02232443,3.73220833 C6.90175382,3.74499612 6.77935639,3.76509122 6.65878578,3.78518632 L6.65878578,3.10012606 Z" id="Fill-3690-Copy" fill="#D95652"></path>
                <path d="M11.8830542,15.9491748 L11.8814056,15.9491748 C10.826334,17.0274236 9.36736767,17.6945901 7.76168047,17.6945901 C6.15104762,17.6945901 4.69372987,17.0274236 3.64030674,15.9491748 C2.78635811,15.0781519 2.19782594,13.9358821 2,12.6605159 L3.10123106,11.5334089 L4.34423737,12.802036 L4.36731707,12.8273075 C4.52557782,12.9907296 4.78604864,12.9907296 4.94430939,12.8273075 L6.20874685,11.5334089 L7.45175316,12.802036 L7.47153576,12.8273075 C7.62814796,12.9907296 7.89026733,12.9907296 8.04687953,12.8273075 L9.31626264,11.5334089 L10.5559719,12.802036 L10.5790515,12.8273075 C10.7356637,12.9907296 10.994486,12.9907296 11.1543953,12.8273075 L12.4204813,11.5334089 L13.5217124,12.6605159 C13.325535,13.9358821 12.7353543,15.0781519 11.8830542,15.9491748 Z" id="Path" fill-opacity="0.5" fill="#FFFFFF"></path>
            </g>
        </g>
    </g>
</svg>