<?xml version="1.0" standalone="no"?><!DOCTYPE svg PUBLIC "-//W3C//DTD SVG 1.1//EN" "http://www.w3.org/Graphics/SVG/1.1/DTD/svg11.dtd"><svg t="1560404858436" class="icon" style="" viewBox="0 0 1024 1024" version="1.1" xmlns="http://www.w3.org/2000/svg" p-id="2111" xmlns:xlink="http://www.w3.org/1999/xlink" width="200" height="200"><defs><style type="text/css"></style></defs><path d="M407.56739807 384.55378723c-71.87118531 14.00344849-139.21257019 48.11599732-199.36065674 78.99032593 35.15075684 75.51109314 91.18927002 148.82217407 105.52024841 226.56417846 30.73837281 13.32366943 69.65263367 20.09674073 101.47865296 21.18438721 3.91799927-95.44715881 0.28427124-205.25001526-7.63824463-326.7388916l0 0zM786.16725159 608.88087463l35.37322998 0 0 104.51293946-151.17668152 0 0-55.64300537-53.94355774 0 0-48.86993409 137.14233399 0zM286.78302002 267.35369873l0 28.37768555 21.82090759 0 0 92.72186279c39.40864563-15.89447021 74.03411865-24.91081238 115.24108887-32.91366577 41.96090698 7.70004273 75.84480286 16.98829651 115.69221497 33.46366883l0-93.27804566 20.31921386 0 0-28.37768554-273.07342529 0zM380.76556396 335.7827301l-58.86268615 0 0-28.35914612 58.86268615 0 0 28.35914612zM452.74798584 335.7827301l-58.86268616 0 0-28.35914612 58.86268616 0 0 28.35914612zM524.40287781 335.7827301l-58.90594482 0 0-28.35914612 58.90594482 0 0 28.35914612zM259.48680115 712.61515808c30.64567566 17.1736908 63.74473572 16.84616089 99.21684265 0.01235962 41.40472412 23.2422638 86.15272522 22.78495789 134.08332825 0.05561829l0-0.05561829c35.46592713 16.83380127 68.56498718 17.16133117 99.21066284-0.01235962 0.3213501 1.40899658 0.62416076 2.83035278 0.92079162 4.22080994-16.4630127 37.39402771-82.98248291 37.48054505-100.13763427 1.89102172l0 2.15057373c-22.93945313 47.72666932-111.30455018 48.00476075-134.67658997-1.01348876-17.93380737 34.32884216-82.61169434 33.95805359-99.30335998-2.48428345-10.75286865 18.984375-47.18284607 18.45291138-56.34750367-2.35450745 0.17921448-0.82191467 0.34606934-1.62528992 0.52528382-2.42866516 17.47650146 9.78263855 36.34346008 9.59724427 56.50817871 0.01853943l0 0zM593.4931488 712.59043885c-0.18539429 0.80337524-0.36460877 1.61293029-0.56854247 2.42248534 9.33769226 21.03607177 46.47834778 21.36360169 56.73683166 1.69326782 0.10505677 0.23483276 0.22247315 0.43876648 0.33988953 0.65505982l0-4.75845337c-20.20179748 9.59106445-39.04403687 9.77645874-56.50817872-0.01235961l0 0zM503.28646851 501.2162323c-2.91069031 0-5.24665833 2.36686706-5.24665833 5.25901794 0 2.89833068 2.33596802 5.25283813 5.24665833 5.25283814 2.87361145 0 5.2281189-2.34832763 5.22811889-5.25283814-0.00617981-2.88597107-2.36068726-5.25901794-5.22811889-5.25901794l0 0zM438.15127563 383.99142456c-7.83599854 109.96353149-12.49557495 219.21638489-10.19668579 326.93664551 31.770401-1.8724823 74.18243408-9.07814026 106.78710938-20.81977845 14.37423706-77.7420044 70.37567138-151.04072571 105.56350708-226.55799865-63.49754333-30.30578614-131.22207641-66.58744812-202.15393067-79.55886841zM547.33615112 567.72334289c-1.19888305 0.24101257-2.14439393-0.44494629-2.84889221-1.32865906-3.36799622 7.89161682-8.67645263 13.87985229-16.25907898 18.60122682-7.21183777 4.50508117-15.1714325 7.08206177-22.84675598 10.58601378l-1.65000916 0.74775697-1.67472839-0.74775697c-7.6815033-3.50395203-15.60401917-6.068573-22.81585693-10.58601378-7.58880615-4.72137451-12.92198182-10.69725037-16.28997803-18.60122682-0.67977906 0.88371277-1.64382935 1.56967163-2.85507202 1.32865906-1.98371887-0.389328-2.48428344-2.94776917-2.70675659-4.59777831-0.30899048-2.15057373-0.37696838-4.39384461-0.40786744-6.57531739-0.05561828-3.01574708 0.10505677-6.02531433 0.07415772-9.02870178l3.07136536-1.40281677c0.84663391 0.73539734 1.83540344 1.47079468 2.73147583 2.2000122 1.40281677 1.0938263 2.76855469 2.18765258 4.14047241 3.29383851 1.70562744 1.40899658 3.47923279 2.88597107 4.9747467 4.4618225 1.17416382 1.26686096 2.86125183 3.21968078 1.98371888 5.04272461-0.68595886 1.3533783-2.26799011 1.61293029-3.88710023 1.43371583 5.31463623 9.06578064 17.68043518 14.19502258 27.6979065 16.30851745l0-45.74295044-10.94444275 0c-1.23596192 1.26068115-2.98484802 2.0022583-4.77699279 2.0022583-3.79440307 0-6.84722901-3.08990479-6.84722901-6.86576843s3.05282593-6.84104919 6.84722901-6.84104919c2.29270935 0 4.37530518 1.14326477 5.64216613 2.95394897l10.08544922 0 0-5.50003052c-4.85733032-2.13821411-8.02757263-6.98936463-8.02757264-12.37815856 0-4.49272156 2.18765258-8.47251892 5.53710938-10.94444276-8.29948425-3.70170593-13.4287262-13.11355591-11.80961608-23.34732055 1.85394287-12.27928162 12.61299133-21.02989197 23.99002074-19.55909729 11.43264771 1.43989563 19.13887024 12.56355286 17.27256776 24.83047485-1.23596192 8.3303833-6.6494751 15.0478363-13.52142334 18.04504395 3.39271545 2.47192383 5.62980652 6.457901 5.62980651 10.96916198 0 5.26519776-3.07754516 10.02983093-7.76802062 12.22366333l0 5.65452576 10.18432617 0c1.24214172-1.8106842 3.39271545-2.96012878 5.66688537-2.96012878 3.78204346 0 6.82250977 3.06518555 6.82250976 6.847229 0 3.76968383-3.04046631 6.85958862-6.82250976 6.85958863-1.82304382 0-3.54103088-0.73539734-4.81407165-1.99607849l-11.03713989 0 0 45.86036681c10.18432617-2.08259583 22.86529541-7.19329834 28.27262878-16.41357422-1.61911011 0.16685486-3.1640625-0.09269714-3.84384155-1.43371581-0.90225219-1.82304382 0.80955505-3.77586365 1.98371887-5.04272461 1.4831543-1.57585144 3.21968078-3.05282593 4.93766785-4.46182251 1.37191773-1.10618591 2.76237488-2.20001221 4.12811279-3.29383851 0.93933106-0.72921753 1.88484192-1.46461487 2.76237487-2.20001221l3.06518555 1.40281678c-0.04325867 3.00338745 0.11741638 6.01295471 0.09887695 9.02870178-0.07415771 2.18765258-0.129776 4.44328308-0.44494628 6.57531738-0.22247315 1.65000916-0.67359924 4.20227051-2.70057679 4.59159851z" fill="#1890ff" p-id="2112"></path></svg>