<?xml version="1.0" standalone="no"?><!DOCTYPE svg PUBLIC "-//W3C//DTD SVG 1.1//EN" "http://www.w3.org/Graphics/SVG/1.1/DTD/svg11.dtd"><svg t="1560404630999" class="icon" style="" viewBox="0 0 1024 1024" version="1.1" xmlns="http://www.w3.org/2000/svg" p-id="2051" xmlns:xlink="http://www.w3.org/1999/xlink" width="200" height="200"><defs><style type="text/css"></style></defs><path d="M518.2817197 480.38501203c76.98135747 0 94.97909811-77.69427165 109.57975132-122.80719411l-219.15802094 0C414.31412649 384.53441086 434.18382147 480.38501203 518.2817197 480.38501203zM577.03560404 214.04350629c-6.28431378 15.42621107-10.82265511 26.55937628-17.47305961 42.84301058 4.15001853-65.96676422-0.74700356-73.96518361-41.3749413-74.29125665-42.7792784-0.34904602-48.08833712 8.06215156-43.53369194 75.92532625-7.11802246-18.32307213-12.0772943-31.06659239-17.9814368-46.24676641-41.32751295 34.60596559-46.98487683 78.55984643-55.02405544 129.10781099l233.44149494 0C623.25939748 288.83498789 618.33125089 244.02368308 577.03560404 214.04350629zM758.95462164 733.30787844c-9.47464023-54.78542909-19.68146187-109.50786758-32.45684894-163.59372221-3.29259457-13.93516882-14.74368128-30.71828722-27.1552002-36.86846603-33.96345344-16.8223959-70.42581113-28.67810854-108.69787271-43.58779087-16.03759726 33.71741639-30.8605737 64.86256309-45.67613945 96.00103994-2.73086002-0.69809205-5.46690818-1.40507796-8.1977682-2.09427687-1.38803327-26.40967908-2.78495895-52.80972418-4.30786728-81.79760194l-40.4626783 0c-1.46806929 28.21716041-2.81682503 54.27705188-4.17373306 80.33694407-2.81682503 0.5402433-5.63365007 1.07900489-8.4430644 1.61183749-14.68068996-29.83789031-29.35248678-59.68170961-45.94589032-93.42358209-33.37652265 12.61012689-62.45110628 24.274643-92.02591485 34.5363044-26.86099324 9.31530905-42.43023165 24.60664432-46.70771527 54.75282214-7.4352024 52.35692759-20.20317877 103.94536039-29.21761099 156.11998387-8.03917861 46.51725885 33.57438905 99.17654498 80.74898144 104.42113066 45.21593145 5.03041473 58.50784729-6.86457472 51.26236046-51.27051202-1.94457967-11.85571337-16.21174985-21.50524703-23.96487375-32.74142119-8.44306441-12.23662549-19.47321991-24.2575983-22.90958341-37.96303392-4.53908219-18.11631187-2.03943782-37.85261351-3.92769602-56.74557176-1.8193386-18.15410697 2.86944151-29.44808506 14.92524459-34.5681705-1.36135388 37.57174625-4.09147376 112.71746199 43.4707006 132.28331605 5.80854351 2.38922469 6.93571831 19.16345067 7.75238232 29.46438889 1.24648762 15.69670352 0.32607306 31.55792491 0.32607307 48.39810635l192.0672945 0c5.91896393-29.64669303 2.62636862-72.20439049 16.93355714-81.44781507 33.40468302-21.58750631 39.32438779-75.88530788 40.28259744-127.92950214 4.8814591 2.12243798 9.35088083 5.5936317 12.66200254 11.23987989 16.03759726 27.34417419-9.84740078 99.31067919-31.77357757 123.02951664-9.33235373 10.09417868-14.91857473 27.09220887-13.65652485 43.70043381 2.02239314 26.55937628 26.44154517 33.74039007 34.2257936 34.10573994C720.77000606 841.91163457 768.47594937 788.41122903 758.95462164 733.30787844zM578.0197515 716.72336803c6.40436743 6.34804596 3.841731 5.52322967 24.71928801 5.52322966 0 1.58664124 0.02297296 4.5301898-0.02445539 4.57835971-12.87098534 13.07033417-37.94673007 12.91100372-50.97556418 0-2.29362643-2.26917104-4.04774967-5.48247044-5.29423731-9.17302254l-65.33092265 0c-1.23833609 3.70611436-3.01543301 6.95128058-5.37279161 9.29233537-13.03031652 12.90285143-37.7873989 12.75241339-50.97704662 0-0.04742908-0.05558063-0.02371453-2.94429012-0.02371453-4.58577043 21.33035286 0.00815155 18.14817797 0.99896887 24.72669871-5.51507811 5.07858464-5.03041473 5.18900505-21.40964802 0-26.56011714-6.41177813-6.34804596-3.84840085-5.52248882-24.72669871-5.52248881 0-1.58738211-0.02371453-4.52351994 0.03112524-4.57910056 12.8628338-13.05403106 37.93857852-12.91100372 50.96889433 0 2.36476932 2.34105477 4.15001853 5.66625701 5.40391685 9.49094332l65.11675169 0c1.24648762-3.84099014 3.04655825-7.20621004 5.47654217-9.60210457 13.02883411-12.90952129 37.7873989-12.76056495 50.9755642-1e-8 0.04742908 0.04816992 0.02445539 2.93613785 0.02445538 4.57910057-21.33035286 0-18.14817797-0.99970972-24.71928801 5.52322967C572.94116612 695.20329959 572.81444263 711.57438062 578.0197515 716.72336803z" fill="#1890ff" p-id="2052"></path></svg>