<?xml version="1.0" standalone="no"?><!DOCTYPE svg PUBLIC "-//W3C//DTD SVG 1.1//EN" "http://www.w3.org/Graphics/SVG/1.1/DTD/svg11.dtd"><svg t="1578546981239" class="icon" viewBox="0 0 1024 1024" version="1.1" xmlns="http://www.w3.org/2000/svg" p-id="2033" width="40" height="40" xmlns:xlink="http://www.w3.org/1999/xlink"><defs><style type="text/css"></style></defs><path d="M512 1024a512 512 0 1 1 512-512 512 512 0 0 1-512 512z m0-945.230769a433.230769 433.230769 0 1 0 433.230769 433.230769A433.230769 433.230769 0 0 0 512 78.769231z m317.853538 390.695384a76.465231 76.465231 0 0 1-109.48923-0.43323 47.714462 47.714462 0 0 0-68.923077-0.275693c-38.144 30.759385-69.159385 30.641231-107.067077-0.43323A53.523692 53.523692 0 0 0 512 453.316923v1.575385a51.2 51.2 0 0 0-36.608 14.611692 76.465231 76.465231 0 0 1-109.489231-0.433231 47.714462 47.714462 0 0 0-68.923077-0.275692c-38.144 30.759385-69.159385 30.641231-107.067077-0.433231A53.464615 53.464615 0 0 0 157.538462 453.297231V413.538462a87.335385 87.335385 0 0 1 54.429538 23.000615c23.138462 18.963692 36.115692 21.838769 62.916923 0.256a81.348923 81.348923 0 0 1 113.132308 0.452923c24.950154 20.460308 40.211692 20.519385 65.319384 0.256A89.698462 89.698462 0 0 1 512 413.538462v20.775384V413.538462a87.335385 87.335385 0 0 1 54.429538 23.000615c23.138462 18.963692 36.115692 21.838769 62.916924 0.256a81.348923 81.348923 0 0 1 113.132307 0.452923c24.950154 20.460308 40.211692 20.519385 65.319385 0.256A89.659077 89.659077 0 0 1 866.461538 413.538462v41.353846a51.2 51.2 0 0 0-36.608 14.572307zM236.307692 571.076923a78.611692 78.611692 0 0 0 75.992616-59.076923H315.076923a78.769231 78.769231 0 0 0 157.538462 0 78.769231 78.769231 0 0 0 157.538461 0h1.969231a98.461538 98.461538 0 0 0 192.984615 0H866.461538a354.461538 354.461538 0 0 1-708.923076 0h2.776615A78.611692 78.611692 0 0 0 236.307692 571.076923z" p-id="2034" fill="#0728FB"></path></svg>