<?xml version="1.0" standalone="no"?><!DOCTYPE svg PUBLIC "-//W3C//DTD SVG 1.1//EN" "http://www.w3.org/Graphics/SVG/1.1/DTD/svg11.dtd"><svg t="1560404338613" class="icon" style="" viewBox="0 0 1024 1024" version="1.1" xmlns="http://www.w3.org/2000/svg" p-id="1991" xmlns:xlink="http://www.w3.org/1999/xlink" width="200" height="200"><defs><style type="text/css"></style></defs><path d="M511.992362 186.11160469C373.36758582 186.11160469 260.59683454 298.86898947 260.61020106 437.48039911c0 51.49036646 15.46633226 100.99803301 44.41566037 142.67101155 1.45313125 2.49826552 2.91962903 4.91569547 4.64390964 7.26438332l183.48916957 241.86392839c4.98316454 5.55346924 11.67787967 8.60867294 18.84742437 8.60867294 7.07470608 0 13.80952076-3.08257324 19.63477581-9.61370767l182.64707906-240.89962971c1.80575269-2.3900604 3.34035606-5.01053407 4.18244658-6.54513743 29.37069163-42.25664975 44.91849599-91.81905537 44.91849598-143.32278836C763.38852594 298.86898947 650.61713815 186.11160469 511.992362 186.11160469z m-45.84205862 95.07157433l90.28827103-19.74807296c0.86564105-0.20622625 1.73128211-0.3297074 2.59755964-0.49456111 5.23585535-0.78353244 9.11150855 3.66942695 7.58581621 8.74042859-1.9788809 6.55532145-4.0405069 13.11064292-6.30772266 19.54184672-0.9070136 2.59755966-0.61867875 3.50457325 2.18510715 4.49369546 45.43278861 15.70756605 77.92042451 45.72112346 97.62712493 89.87581853 1.36020215 3.1334933 1.1546124 4.535068-2.1437346 5.73041644-2.84452194 1.03049475-5.19448281 3.05074822-7.4209625 5.19448279-7.5858162 7.33821742-15.17163241 14.55359016-22.79882116 21.85043502-0.86564105 0.8242685-1.81402719 1.60780096-3.0507482 2.72104081-2.39133339-9.11150855-5.35933651-17.52159325-9.52332455-25.51986196-14.38873644-27.45737032-36.40402516-45.96872226-65.42846037-56.39906041-2.7210408-0.94838615-3.7929081-0.5773062-4.6171766 2.34996084-1.93750835 7.0912551-4.16398806 14.09976511-6.39046776 21.10827509-2.2264797 7.04988255-8.69905606 8.61631095-13.64657655 3.1334933a50502.38232245 50502.38232245 0 0 0-63.24335321-69.674557c-4.90614795-5.48281765-2.9686396-11.33671524 4.2874692-12.90378015zM354.09370595 489.05287417c-8.61631095-30.92057101-17.0684047-61.88251456-25.56123449-92.84445813-1.44294726-5.31860046 2.7210408-9.77092334 8.08037729-8.57557491 7.54444365 1.69054604 15.04815125 3.42182815 22.42774119 5.44208161 2.6382957 0.70078734 3.66942695 0.12348115 4.61781312-2.473442 15.21300495-40.36178695 42.29929531-69.83941072 80.64146531-89.05155002 2.473442-1.19534845 3.71079951-0.9070136 5.56556276 1.1546124 9.8944045 11.09038944 19.95429921 21.9331801 30.38463736 33.35327696-12.28573791 4.0405069-23.33475481 9.44121595-33.47675811 16.77943335-17.56296581 12.8630441-30.71434476 29.23002497-39.37202826 49.30844182-1.07186731 2.473442-0.5773062 3.05074822 1.93750836 3.58668184 6.43120379 1.3194661 12.780299 2.9686396 19.1293942 4.53506801 6.30772266 1.52569235 8.32797609 7.79204245 3.8756532 12.5333367-21.7683264 23.21127366-43.61876141 46.38117476-65.51056898 69.55107586-4.6178131 4.9462475-10.92553575 3.29771049-12.73956295-3.29898349z m187.25598114 125.29072147c-30.63223615 4.98825654-61.34658091 10.01852216-92.02018961 15.04815126-0.86564105 0.16485369-1.77265465 0.24759879-2.6382957 0.3297074-6.06076035 0.45318855-9.6474422-4.08124295-7.50370761-9.85366845 2.7210408-7.37958996 5.6069353-14.63569876 8.61631096-21.93318011 0.9070136-2.26785225 0.5773062-3.1334933-1.6491735-4.16398805-37.18755762-17.48022069-63.69654177-45.43278861-80.51734768-82.95005362-1.1546124-2.6382957-0.98975871-3.58668186 1.89613581-4.2053606 3.21560191-0.65941479 5.56556275-2.8858945 7.79204244-5.1944828 7.70929735-8.12174985 15.37785865-16.20212715 23.08715602-24.28314096 0.86564105-0.9070136 1.4843198-2.10236205 2.92726704-2.55618709 9.19361715 34.63137051 29.64247745 59.73877996 60.93412842 76.14713337 2.84452194 1.4843198 3.75153555 0.78353244 4.69992169-1.9788809 2.14373459-6.10149639 4.535068-12.12088421 6.92640141-18.09889945 2.43270596-6.14286895 8.28660355-7.1733637 12.40921906-2.14373461 20.07778036 24.36524956 40.19693326 48.81324421 60.19260502 73.26123887 4.8654119 6.0200243 2.63956871 11.2972522-5.15247377 12.57534574z m144.33737059-103.52239506c-6.39046776-1.9788809-12.8630441-3.75153555-19.12939419-6.01938782-3.05074822-1.11323986-4.0405069-0.24759879-5.19448281 2.47344201-16.903551 39.70237216-44.85548241 68.60268971-83.93917581 86.57810802-5.07100164 2.34996085-10.26548445 4.32884175-15.5013398 6.0193878-0.86564105 0.24759879-1.60780096 1.07186731-2.51481456-0.37107994-7.4209625-11.79117681-17.27463096-21.56210015-25.76746077-32.44626337-1.4015747-1.77265465-2.84452194-3.50457325-4.49369544-5.48345415 6.22561405-1.11323986 12.12088421-2.18510716 17.7278195-4.08124295 32.85871585-10.92553575 56.27557927-32.52837197 71.07613171-63.86139547 1.23672099-2.6382957 0.45382506-3.298347-2.02025344-3.99913434-6.80228375-1.89613581-13.56383146-3.9577618-20.2840066-6.1014964-6.3490952-1.9788809-7.91552361-8.0803773-3.05074821-12.69819041a21046.67201406 21046.67201406 0 0 1 69.17999592-65.92302147c4.7826668-4.49369545 11.00764435-2.51481455 12.49196416 3.91638924 7.13262765 31.0854247 14.22324625 62.17148592 21.1910202 93.21553809 1.52505584 7.00851001-2.9686396 10.84279065-9.77155986 8.78180115z" fill="#007B6A" p-id="1992"></path></svg>