<?xml version="1.0" standalone="no"?><!DOCTYPE svg PUBLIC "-//W3C//DTD SVG 1.1//EN" "http://www.w3.org/Graphics/SVG/1.1/DTD/svg11.dtd"><svg t="1560391278406" class="icon" style="" viewBox="0 0 1024 1024" version="1.1" xmlns="http://www.w3.org/2000/svg" p-id="1961" xmlns:xlink="http://www.w3.org/1999/xlink" width="200" height="200"><defs><style type="text/css"></style></defs><path d="M511.988 0C294.196 0 117.023 177.152 117.044 394.923c0 80.896 24.299 158.677 69.781 224.149 2.283 3.925 4.587 7.723 7.296 11.413l288.278 379.99c7.829 8.725 18.347 13.525 29.611 13.525 11.115 0 21.696-4.843 30.848-15.104l286.955-378.475c2.837-3.755 5.248-7.872 6.571-10.283 46.144-66.389 70.571-144.256 70.571-225.173C906.954 177.152 729.78 0 511.988 0z m-72.022 149.366l141.851-31.026c1.36-0.324 2.72-0.518 4.081-0.777 8.226-1.231 14.315 5.765 11.918 13.732-3.109 10.299-6.348 20.598-9.91 30.702-1.425 4.081-0.972 5.506 3.433 7.06 71.379 24.678 122.42 71.832 153.381 141.203 2.137 4.923 1.814 7.125-3.368 9.003-4.469 1.619-8.161 4.793-11.659 8.161-11.918 11.529-23.836 22.865-35.819 34.329-1.36 1.295-2.85 2.526-4.793 4.275-3.757-14.315-8.42-27.528-14.962-40.094-22.606-43.138-57.194-72.221-102.794-88.608-4.275-1.49-5.959-0.907-7.254 3.692-3.044 11.141-6.542 22.152-10.04 33.163-3.498 11.076-13.667 13.537-21.44 4.923a79343.788 79343.788 0 0 0-99.361-109.465c-7.708-8.614-4.664-17.811 6.736-20.273zM263.915 475.948c-13.537-48.579-26.816-97.223-40.159-145.867-2.267-8.356 4.275-15.351 12.695-13.473 11.853 2.656 23.642 5.376 35.236 8.55 4.145 1.101 5.765 0.194 7.255-3.886 23.901-63.412 66.456-109.724 126.695-139.908 3.886-1.878 5.83-1.425 8.744 1.814 15.545 17.424 31.35 34.459 47.737 52.401-19.302 6.348-36.661 14.833-52.595 26.362-27.593 20.209-48.255 45.923-61.857 77.468-1.684 3.886-0.907 4.793 3.044 5.635 10.104 2.073 20.079 4.664 30.054 7.125 9.91 2.397 13.084 12.242 6.089 19.691-34.2 36.467-68.529 72.869-102.923 109.271-7.255 7.771-17.165 5.181-20.015-5.183z m294.196 196.843c-48.126 7.837-96.381 15.74-144.572 23.642-1.36 0.259-2.785 0.389-4.145 0.518-9.522 0.712-15.157-6.412-11.789-15.481 4.275-11.594 8.809-22.994 13.537-34.459 1.425-3.563 0.907-4.923-2.591-6.542-58.425-27.463-100.073-71.379-126.5-130.322-1.814-4.145-1.555-5.635 2.979-6.607 5.052-1.036 8.744-4.534 12.242-8.161 12.112-12.76 24.16-25.455 36.272-38.151 1.36-1.425 2.332-3.303 4.599-4.016 14.444 54.409 46.571 93.855 95.733 119.634 4.469 2.332 5.894 1.231 7.384-3.109 3.368-9.586 7.125-19.043 10.882-28.435 3.822-9.651 13.019-11.27 19.496-3.368 31.544 38.28 63.153 76.69 94.568 115.1 7.644 9.458 4.147 17.749-8.095 19.757z m226.767-162.643c-10.04-3.109-20.209-5.894-30.054-9.457-4.793-1.749-6.348-0.389-8.161 3.886-26.557 62.376-70.472 107.781-131.876 136.022-7.967 3.692-16.128 6.801-24.354 9.457-1.36 0.389-2.526 1.684-3.951-0.583-11.659-18.525-27.14-33.876-40.483-50.976-2.202-2.785-4.469-5.506-7.06-8.615 9.781-1.749 19.043-3.433 27.852-6.412 51.624-17.165 88.414-51.105 111.667-100.332 1.943-4.145 0.713-5.182-3.174-6.283-10.687-2.979-21.31-6.218-31.868-9.586-9.975-3.109-12.436-12.695-4.793-19.95a33066.216 33066.216 0 0 1 108.688-103.571c7.514-7.06 17.294-3.951 19.626 6.153 11.206 48.838 22.346 97.677 33.293 146.45 2.396 11.011-4.664 17.035-15.352 13.797z" fill="#1890ff" p-id="1962"></path></svg>