<?xml version="1.0" standalone="no"?><!DOCTYPE svg PUBLIC "-//W3C//DTD SVG 1.1//EN" "http://www.w3.org/Graphics/SVG/1.1/DTD/svg11.dtd"><svg t="1560405279229" class="icon" style="" viewBox="0 0 1024 1024" version="1.1" xmlns="http://www.w3.org/2000/svg" p-id="2267" xmlns:xlink="http://www.w3.org/1999/xlink" width="200" height="200"><defs><style type="text/css"></style></defs><path d="M187.34273862 285.61619473h604.41434385v14.48392868H187.34273862z" fill="#1890ff" p-id="2268"></path><path d="M792.33643961 351.44565058H187.34273862v-69.45043802L589.05450058 205.08555127l203.28193903 77.99595594v68.36414336z m-590.5097723-14.48392868h576.02584363v-43.95872354L587.67852735 220.07641744 201.82666731 294.01687336v42.94484854z" fill="#1890ff" p-id="2269"></path><path d="M293.00299835 336.96172189h14.48392868v67.27784873h-14.48392867zM581.16075945 212.54477453h14.48392868v131.65891171h-14.48392869zM617.29816151 337.39623975h14.48392868v127.89309026h-14.48392868zM277.86729287 401.56004382h14.4839287v73.43351841h-14.48392869z" fill="#1890ff" p-id="2270"></path><path d="M247.5234623 308.71806096l25.78139304 27.15736628h-51.56278609l25.78139305-27.15736627m0-21.07411623l-59.45652725 62.71541119H307.05240917l-59.52894687-62.71541119z" fill="#1890ff" p-id="2271"></path><path d="M344.63820409 308.71806096l25.78139306 27.15736628h-51.5627861l25.78139305-27.15736627m0-21.07411623l-59.45652724 62.71541119H404.09473133l-59.45652724-62.71541119zM537.27445555 308.71806096l25.78139305 27.15736628h-51.5627861l25.78139305-27.15736627m0-21.07411623l-59.45652723 62.71541119h118.98547411l-59.52894689-62.71541119z" fill="#1890ff" p-id="2272"></path><path d="M635.33065272 308.71806096l25.78139305 27.15736628h-51.56278611l25.78139305-27.15736627m0-21.07411623l-59.45652722 62.71541119h118.98547411l-59.52894689-62.71541119z" fill="#1890ff" p-id="2273"></path><path d="M732.15571594 308.71806096l25.78139305 27.15736628h-51.56278609l25.78139304-27.15736627m0-21.07411623l-59.45652723 62.71541119h118.98547411L732.15571594 287.64394474zM442.7668209 308.71806096l25.78139307 27.15736628h-51.56278611l25.78139304-27.15736627m0-21.07411623l-59.45652723 62.71541119h118.98547411l-59.52894688-62.71541119zM570.00813437 486.72554445l25.12961626 25.20203591-25.12961627 25.2020359v-50.4040718m-14.48392868-35.05110741v120.57870626L615.56009007 512l-60.03588439-60.32556296z" fill="#1890ff" p-id="2274"></path><path d="M570.00813437 585.14383984l25.12961626 25.20203589-25.12961627 25.20203592V585.14383984m-14.48392868-35.05110741V670.59901904l60.03588439-60.25314331-60.03588439-60.25314331z" fill="#1890ff" p-id="2275"></path><path d="M570.00813437 684.57601023l25.12961626 25.2020359-25.12961627 25.2020359v-50.40407181m-14.48392868-35.0511074v120.57870627l60.03588439-60.25314331-60.03588439-60.32556296zM654.30459929 465.21691036H522.42842865v-62.64299154h14.48392868v48.15906287h102.90831328V351.95258808H536.91235733v33.81997347h-14.48392869V337.4686594h131.87617065zM780.89413596 397.2148652H692.0352335v-59.89104508h88.93132209v59.89104509z m-74.37497378-14.48392867h59.96346473v-30.92318774h-59.96346473v30.92318774z" fill="#1890ff" p-id="2276"></path><path d="M693.55604602 812.25184154h-211.46535875v-52.79392004h211.46535875v52.79392004z m-197.05384971-14.48392867h182.49750137v-23.82606268h-182.49750137v23.82606268z" fill="#1890ff" p-id="2277"></path><path d="M622.87447406 773.29007339h-68.2193041V450.73298169h68.21930409v322.5570917z m-53.80779506-14.48392868H608.31812573V465.21691036h-39.25144673v293.58923436zM278.44665002 550.02031279c-16.00474119 0-29.04027701-13.47005367-29.040277-30.05415201v-12.60101796h14.48392868V519.96616078c0 8.61793757 6.5177679 15.57022334 14.55634833 15.57022333s14.55634833-6.95228576 14.55634833-15.57022333v-49.17293788h14.48392867V519.96616078c0 16.58409834-13.03553581 30.05415202-29.040277 30.05415201z" fill="#1890ff" p-id="2278"></path><path d="M300.2449627 485.27715158c-23.17428589 0-42.00339317-16.87377692-42.00339318-37.58579492v-53.15601826l7.1695447-0.07241965c0.14483929 0 14.41150904-0.07241965 33.31303595-0.07241963l43.5242057 0.07241964v53.2284379c0 20.71201802-18.82910728 37.58579493-42.00339317 37.58579493z m-27.51946451-76.40272378v38.74450922c0 12.74585724 12.38375903 23.10186624 27.51946451 23.10186625 15.20812511 0 27.51946449-10.35600901 27.51946449-23.10186625v-38.74450922l-29.04027702-0.07241965c-10.79052687 0-19.98782158 0.07241965-25.99865198 0.07241965zM727.59327841 397.2148652h-35.63046455v-59.89104508h35.63046454v59.89104509z m-21.07411624-14.48392867h6.66260719v-30.92318774h-6.66260719v30.92318774zM195.3088994 815.22104693l-10.79052686-9.70423223 95.44909-105.87751864 68.36414337 73.86803626L471.22774077 616.2842865l100.80814362 128.25518848-11.44230367 8.98003576-89.29342031-113.69884013-122.02709914 155.99191188-69.16075944-74.66465234zM836.15032387 796.31951999l-44.5380807-49.3901968-36.64433956 39.61354495-64.16380404-82.05145598-54.67683077 69.59527732-11.36988403-8.98003579 66.0467148-84.07920598 65.10525941 83.21017026 35.84772349-38.74450923 55.18376827 61.12217905z" fill="#1890ff" p-id="2279"></path><path d="M242.09198904 754.89548397l-3.76582146-6.1556697c-9.34213401-15.20812511-14.1942501-32.73367882-14.1942501-50.62133072 0-53.59053611 43.59662532-97.18716144 97.18716145-97.18716146 53.59053611 0 97.18716144 43.59662532 97.18716144 97.18716146v7.24196433h-14.48392869v-7.24196433c0-45.62437535-37.07885742-82.70323277-82.70323275-82.70323277S238.61584616 652.4941082 238.61584616 698.11848355c0 15.28054476 4.20033931 30.12657166 12.09408045 43.08968782l3.76582145 6.15566969-12.38375901 7.53164291z" fill="#1890ff" p-id="2280"></path></svg>