<?xml version="1.0" standalone="no"?><!DOCTYPE svg PUBLIC "-//W3C//DTD SVG 1.1//EN" "http://www.w3.org/Graphics/SVG/1.1/DTD/svg11.dtd"><svg t="1560405827019" class="icon" style="" viewBox="0 0 1024 1024" version="1.1" xmlns="http://www.w3.org/2000/svg" p-id="2357" xmlns:xlink="http://www.w3.org/1999/xlink" width="200" height="200"><defs><style type="text/css"></style></defs><path d="M745.03464429 390.22161708v44.28212251h44.2821225l-44.28212251-44.28212251z m66.42352323 79.70687002v177.12849006c0 8.85737501-8.85737501 17.71271322-17.71271323 17.71271322-8.85669608 0-17.71203428-8.85737501-17.71203428-17.71271322V469.9284871H550.19411993v48.71081002c0 13.28402572-13.28470464 26.5694093-26.5694093 26.5694093h-48.71081001V806.47411186h115.13365433c13.28470464 0 26.57008822 13.28402572 26.57008822 26.5694093 0 13.28402572-13.28470464 26.5694093-26.57008823 26.56940931H226.93387873c-13.28470464 0-26.5694093-13.28470464-26.56940927-26.56940931s13.28402572-26.5694093 26.56940927-26.5694093h115.13365435V469.92984497H200.36446946c-8.85737501 0-17.71271322-8.85669608-17.71271324-17.71203428V350.36953993c0-4.42868751 0-8.85737501 4.42868752-13.28470464L342.06753308 168.81439918C346.49622057 164.38571167 350.92490808 164.38571167 355.35223772 164.38571167h8.85669607l371.9690144 168.27111505L838.02621895 434.50645533c4.42868751 4.42868751 4.42868751 17.71203428 0 22.14004286s-8.85737501 4.42936644-13.28470465 4.42936644H811.45748859v8.8533014zM492.62661384 368.0808953l53.13881858 53.13881858v-53.13881858h-53.13881858zM373.064272 593.91951643h66.42352323v-44.28144358h-66.42352323v44.28144358z m61.9961936-203.69789935h-39.85343501v101.84827074h101.84827074v-39.85411394l-61.99483574-61.99347787zM373.064272 806.47411186h66.42352323V726.76588398h-66.42352323v79.70687003z m0-469.39063444h57.56614823l-57.56682715-92.99293253v92.99293253z m283.40612725 0L399.63503917 217.52045666l70.85221073 119.56234183H656.47039925zM342.06753308 221.95050204l-106.27627933 115.13365431h106.27627933V221.95050204z m234.69395935 212.55391649h66.42420217v-66.42352323h-66.42352324v66.42352323z m97.42229897 0h39.853435v-66.42352323h-39.853435v66.42352323z m-380.82638943 0h44.2814436v-66.42352323h-44.2814436v66.42352323z m-79.70687001 0h48.71013109v-66.42352323H213.6491741v66.42352323z m159.41374004 256.83536008h66.42352323v-66.42352324h-66.42352323v66.42352324z" fill="#1890ff" p-id="2358"></path></svg>